<svg width="33" height="33" viewBox="0 0 33 33" fill="none" xmlns="http://www.w3.org/2000/svg">
<path d="M24.5867 24H10.3867C9.06667 24 7.8 23.44 6.90667 22.4667C6.46355 21.9841 6.12473 21.4154 5.91138 20.7959C5.69802 20.1765 5.61471 19.5197 5.66667 18.8667L6.77333 5.58667C6.81333 5.17333 6.66667 4.77333 6.38667 4.46667C6.10667 4.16 5.72 4 5.30667 4H3C2.45333 4 2 3.54667 2 3C2 2.45333 2.45333 2 3 2H5.32C6.29333 2 7.21333 2.41333 7.86667 3.12C8.22667 3.52 8.49333 3.98667 8.64 4.50667H25.2933C26.64 4.50667 27.88 5.04 28.7867 6C29.68 6.97333 30.1333 8.24 30.0267 9.58667L29.3067 19.5867C29.16 22.0267 27.0267 24 24.5867 24ZM8.70667 6.49333L7.66667 19.0267C7.6 19.8 7.85333 20.5333 8.37333 21.1067C8.89333 21.68 9.61333 21.9867 10.3867 21.9867H24.5867C25.9733 21.9867 27.2267 20.8133 27.3333 19.4267L28.0533 9.42667C28.085 9.04862 28.0372 8.66814 27.9131 8.30966C27.7889 7.95119 27.5912 7.62264 27.3325 7.34514C27.0738 7.06763 26.76 6.84731 26.4111 6.69832C26.0622 6.54932 25.686 6.47496 25.3067 6.48H8.70667V6.49333ZM22 30.6667C20.5333 30.6667 19.3333 29.4667 19.3333 28C19.3333 26.5333 20.5333 25.3333 22 25.3333C23.4667 25.3333 24.6667 26.5333 24.6667 28C24.6667 29.4667 23.4667 30.6667 22 30.6667ZM22 27.3333C21.6267 27.3333 21.3333 27.6267 21.3333 28C21.3333 28.3733 21.6267 28.6667 22 28.6667C22.3733 28.6667 22.6667 28.3733 22.6667 28C22.6667 27.6267 22.3733 27.3333 22 27.3333ZM11.3333 30.6667C9.86667 30.6667 8.66667 29.4667 8.66667 28C8.66667 26.5333 9.86667 25.3333 11.3333 25.3333C12.8 25.3333 14 26.5333 14 28C14 29.4667 12.8 30.6667 11.3333 30.6667ZM11.3333 27.3333C10.96 27.3333 10.6667 27.6267 10.6667 28C10.6667 28.3733 10.96 28.6667 11.3333 28.6667C11.7067 28.6667 12 28.3733 12 28C12 27.6267 11.7067 27.3333 11.3333 27.3333Z" fill="white"/>
<path d="M28.037 11.9098H12.016C11.4686 11.9098 11.0146 11.4471 11.0146 10.889C11.0146 10.3309 11.4686 9.86816 12.016 9.86816H28.037C28.5844 9.86816 29.0383 10.3309 29.0383 10.889C29.0383 11.4471 28.5844 11.9098 28.037 11.9098Z" fill="white"/>
</svg>
